<?xml version="1.0" encoding="UTF-8" standalone="no"?>
<!-- Created with Inkscape (http://www.inkscape.org/) -->

<svg
   width="256"
   height="256"
   id="svg3773"
   version="1.1"
   inkscape:version="1.3.2 (091e20e, 2023-11-25)"
   sodipodi:docname="chirp.svg"
   inkscape:export-filename="chirp.png"
   inkscape:export-xdpi="96.48922"
   inkscape:export-ydpi="96.48922"
   xmlns:inkscape="http://www.inkscape.org/namespaces/inkscape"
   xmlns:sodipodi="http://sodipodi.sourceforge.net/DTD/sodipodi-0.dtd"
   xmlns:xlink="http://www.w3.org/1999/xlink"
   xmlns="http://www.w3.org/2000/svg"
   xmlns:svg="http://www.w3.org/2000/svg"
   xmlns:rdf="http://www.w3.org/1999/02/22-rdf-syntax-ns#"
   xmlns:cc="http://creativecommons.org/ns#"
   xmlns:dc="http://purl.org/dc/elements/1.1/">
  <defs
     id="defs3775">
    <linearGradient
       inkscape:collect="always"
       id="linearGradient4534">
      <stop
         style="stop-color:#cccccc;stop-opacity:1;"
         offset="0"
         id="stop4536" />
      <stop
         style="stop-color:#cccccc;stop-opacity:0;"
         offset="1"
         id="stop4538" />
    </linearGradient>
    <inkscape:perspective
       sodipodi:type="inkscape:persp3d"
       inkscape:vp_x="0 : 526.18109 : 1"
       inkscape:vp_y="0 : 1000 : 0"
       inkscape:vp_z="744.09448 : 526.18109 : 1"
       inkscape:persp3d-origin="372.04724 : 350.78739 : 1"
       id="perspective3781" />
    <inkscape:perspective
       id="perspective3791"
       inkscape:persp3d-origin="0.5 : 0.33333333 : 1"
       inkscape:vp_z="1 : 0.5 : 1"
       inkscape:vp_y="0 : 1000 : 0"
       inkscape:vp_x="0 : 0.5 : 1"
       sodipodi:type="inkscape:persp3d" />
    <inkscape:perspective
       id="perspective3918"
       inkscape:persp3d-origin="0.5 : 0.33333333 : 1"
       inkscape:vp_z="1 : 0.5 : 1"
       inkscape:vp_y="0 : 1000 : 0"
       inkscape:vp_x="0 : 0.5 : 1"
       sodipodi:type="inkscape:persp3d" />
    <linearGradient
       inkscape:collect="always"
       xlink:href="#linearGradient4534"
       id="linearGradient4540"
       x1="53.92857"
       y1="895.57648"
       x2="258.29047"
       y2="978.07648"
       gradientUnits="userSpaceOnUse"
       gradientTransform="matrix(1.1149719,0,0,1.1149719,-14.716407,-106.21001)" />
    <linearGradient
       inkscape:collect="always"
       xlink:href="#linearGradient4534"
       id="linearGradient4581"
       gradientUnits="userSpaceOnUse"
       gradientTransform="matrix(1.1149719,0,0,1.1149719,-14.716407,-106.21001)"
       x1="53.92857"
       y1="895.57648"
       x2="258.29047"
       y2="978.07648" />
    <linearGradient
       inkscape:collect="always"
       xlink:href="#linearGradient4534"
       id="linearGradient3870"
       gradientUnits="userSpaceOnUse"
       gradientTransform="matrix(1.1149719,0,0,1.1149719,-14.716406,-105.63857)"
       x1="53.92857"
       y1="895.57648"
       x2="258.29047"
       y2="978.07648" />
  </defs>
  <sodipodi:namedview
     id="base"
     pagecolor="#ffffff"
     bordercolor="#666666"
     borderopacity="1.0"
     inkscape:pageopacity="0.0"
     inkscape:pageshadow="2"
     inkscape:zoom="3.2435839"
     inkscape:cx="161.70385"
     inkscape:cy="124.86188"
     inkscape:document-units="px"
     inkscape:current-layer="layer1"
     showgrid="false"
     inkscape:window-width="1800"
     inkscape:window-height="1097"
     inkscape:window-x="0"
     inkscape:window-y="44"
     inkscape:window-maximized="0"
     borderlayer="true"
     inkscape:showpageshadow="2"
     inkscape:pagecheckerboard="0"
     inkscape:deskcolor="#d1d1d1"
     showguides="true">
    <sodipodi:guide
       position="55.910117,91.046225"
       orientation="0,-1"
       id="guide1"
       inkscape:locked="false" />
    <sodipodi:guide
       position="51.745255,94.201423"
       orientation="0,-1"
       id="guide2"
       inkscape:locked="false" />
    <sodipodi:guide
       position="90.364884,166.13995"
       orientation="0,-1"
       id="guide3"
       inkscape:locked="false" />
    <sodipodi:guide
       position="101.09256,163.11096"
       orientation="0,-1"
       id="guide4"
       inkscape:locked="false" />
    <sodipodi:guide
       position="94.68792,194.26092"
       orientation="1,0"
       id="guide5"
       inkscape:locked="false" />
    <sodipodi:guide
       position="162.82484,219.53236"
       orientation="1,0"
       id="guide6"
       inkscape:locked="false" />
    <sodipodi:guide
       position="128,202.25821"
       orientation="-1,0"
       id="guide7"
       inkscape:locked="false"
       inkscape:label=""
       inkscape:color="rgb(0,134,229)" />
  </sodipodi:namedview>
  <metadata
     id="metadata3778">
    <rdf:RDF>
      <cc:Work
         rdf:about="">
        <dc:format>image/svg+xml</dc:format>
        <dc:type
           rdf:resource="http://purl.org/dc/dcmitype/StillImage" />
      </cc:Work>
    </rdf:RDF>
  </metadata>
  <g
     inkscape:label="Layer 1"
     inkscape:groupmode="layer"
     id="layer1"
     transform="translate(0,-796.36218)">
    <rect
       ry="15.791736"
       y="873.21082"
       x="1.2642059"
       height="102.30268"
       width="253.47159"
       id="rect3872"
       style="fill:#ffffff;fill-opacity:1;stroke:#000000;stroke-width:1.23044455000000008;stroke-linecap:butt;stroke-linejoin:miter;stroke-miterlimit:4;stroke-opacity:1;stroke-dasharray:none;stroke-dashoffset:0" />
    <rect
       style="fill:url(#linearGradient3870);fill-opacity:1;stroke:#000000;stroke-width:1.23044455;stroke-linecap:butt;stroke-linejoin:miter;stroke-miterlimit:4;stroke-opacity:1;stroke-dasharray:none;stroke-dashoffset:0"
       id="rect2898"
       width="253.47159"
       height="102.30268"
       x="1.2642059"
       y="873.21082"
       ry="15.791736" />
    <path
       inkscape:connector-curvature="0"
       style="display:none;fill:#999999;fill-opacity:1;stroke:#000000;stroke-width:1.23044;stroke-linecap:butt;stroke-linejoin:miter;stroke-miterlimit:4;stroke-dasharray:none;stroke-dashoffset:0;stroke-opacity:1"
       d="m 176.78712,885.35647 c -33.62642,0.1389 -67.25587,-0.18333 -100.880357,0.1862 -10.307609,1.15201 -19.345272,9.79377 -20.699091,20.10844 -0.734857,7.05609 0.897593,14.58458 1.473236,21.58057 0.575642,6.99598 2.096299,13.83094 4.182258,19.70411 3.479417,9.79656 10.366223,14.50071 16.176527,15.15544 34.086267,0.1824 72.380787,-0.1666 102.512007,-0.13666 5.52192,0.15445 13.57715,-7.03431 17.70615,-17.63893 2.47589,-7.79078 3.38622,-14.80909 3.88794,-19.18797 0.71232,-7.23601 1.03035,-17.59782 0.0346,-21.18515 -2.45934,-9.1155 -10.5566,-17.36685 -20.01359,-18.37063 -1.43779,-0.21495 -2.92033,-0.22722 -4.37962,-0.21532 z"
       id="rect2830"
       sodipodi:nodetypes="ccczscccccccc"
       inkscape:label="oldouterdsub" />
    <path
       inkscape:connector-curvature="0"
       style="display:none;fill:#59aab2;fill-opacity:1;stroke:#000000;stroke-width:1.23;stroke-linecap:butt;stroke-linejoin:miter;stroke-miterlimit:4;stroke-dasharray:none;stroke-dashoffset:0;stroke-opacity:1"
       d="m 177.85993,889.75915 c -34.19435,0.32943 -68.39927,-0.43608 -102.586798,0.42688 -6.581373,1.02477 -12.230044,5.96703 -14.624589,12.10443 -1.284683,3.33332 -1.417022,6.99701 -1.014183,10.53154 0.538398,7.49048 1.640967,14.91401 2.648463,22.35103 1.207501,6.2585 2.930373,12.62821 6.648149,17.88864 2.721379,2.88972 4.900502,4.45377 10.120143,4.49257 33.056245,-0.13175 66.522365,0.17621 99.704725,0.1139 2.83271,-1.09459 5.46743,-2.62236 8.0348,-4.2381 3.3277,-2.36475 5.74082,-5.93039 6.84205,-9.85432 2.19763,-6.55876 3.08044,-13.48374 3.81607,-20.33915 0.52396,-6.74433 0.69701,-13.6319 -0.80149,-20.26168 -2.52836,-7.83335 -10.57852,-13.40621 -18.78734,-13.21574 z"
       id="path3672"
       sodipodi:nodetypes="ccccccccccccc"
       inkscape:label="oldinnerdsub" />
    <path
       id="path3735"
       sodipodi:nodetypes="cccccccccc"
       style="display:inline;fill:#999999;stroke:#000000;stroke-width:1.2;stroke-linecap:round;stroke-dasharray:none;fill-opacity:1"
       d="M 74.380028,886.453 H 184.79963 c 8.78925,0 15.86496,7.1895 15.86496,16.11969 l -5.0246,42.84021 c -1.20115,9.29053 -8.5943,16.08539 -17.38355,16.08539 l -99.436067,-0.25008 c -8.789255,0 -15.864974,-7.18947 -15.864974,-16.11976 l -4.442222,-42.55671 c 0,-8.93018 7.075718,-16.11966 15.864968,-16.11966 z"
       inkscape:label="outerdsub" />
    <path
       style="display:inline;fill:#59aab2;stroke:#000000;stroke-width:1.2;stroke-linecap:round;stroke-dasharray:none;fill-opacity:1"
       sodipodi:type="inkscape:offset"
       inkscape:radius="-5.2141833"
       inkscape:original="M 74.378906 886.45117 C 65.589656 886.45117 58.513672 893.64209 58.513672 902.57227 L 62.955078 945.12891 C 62.955078 954.0592 70.031058 961.24805 78.820312 961.24805 L 178.25586 961.49805 C 187.04511 961.49805 194.43947 954.70264 195.64062 945.41211 L 200.66406 902.57227 C 200.66406 893.64208 193.58808 886.45312 184.79883 886.45312 L 74.380859 886.45312 L 74.378906 886.45117 z "
       xlink:href="#path3735"
       id="path9"
       inkscape:href="#path3735"
       d="m 74.376953,891.66602 c -5.912661,0.001 -10.581128,4.6876 -10.630859,10.81445 l 4.394531,42.10742 a 5.2147047,5.2147047 0 0 1 0.0293,0.54102 c 0,6.17595 4.70431,10.90429 10.65039,10.90429 a 5.2147047,5.2147047 0 0 1 0.01367,0 l 99.421876,0.25 c 6.10168,0 11.31919,-4.6266 12.21289,-11.53906 l -0.006,0.0606 4.96484,-42.3418 c -0.0592,-6.11821 -4.72064,-10.79492 -10.6289,-10.79492 H 74.380859 a 5.2147047,5.2147047 0 0 1 -0.002,-0.002 z"
       inkscape:label="innerdsub" />
    <text
       xml:space="preserve"
       style="font-size:23.7333px;font-style:normal;font-variant:normal;font-weight:bold;font-stretch:normal;fill:#000000;fill-opacity:1;stroke:none;font-family:BankGothic;-inkscape-font-specification:'BankGothic, Bold';font-variant-ligatures:normal;font-variant-caps:normal;font-variant-numeric:normal;font-variant-east-asian:normal;letter-spacing:-1.64px"
       x="77.551765"
       y="917.85834"
       id="text3710"><tspan
         sodipodi:role="line"
         id="tspan3712"
         x="77.551765"
         y="917.85834"
         dx="0 0 -0.70311111 0 4.2186675 0 4.9217787 0 1.0546669"
         style="font-size:23.73333333px;-inkscape-font-specification:'BankGothic, Bold';font-family:BankGothic;font-weight:bold;font-style:normal;font-stretch:normal;font-variant:normal;font-variant-ligatures:normal;font-variant-caps:normal;font-variant-numeric:normal;font-variant-east-asian:normal;letter-spacing:-1.64px">c h i r p</tspan></text>
    <path
       style="fill:#000000;fill-opacity:1;stroke:#000000;stroke-width:10;stroke-linecap:butt;stroke-linejoin:miter;stroke-miterlimit:4;stroke-opacity:1;stroke-dasharray:none;stroke-dashoffset:0"
       id="path3716"
       transform="matrix(0.12304446,0,0,0.12304446,104.62155,854.11197)"
       d="m -559.99999,583.79077 a 74.285713,74.285713 0 1 1 -148.57143,0 74.285713,74.285713 0 1 1 148.57143,0 z"
       sodipodi:type="arc"
       sodipodi:ry="74.285713"
       sodipodi:rx="74.285713"
       sodipodi:cy="583.79077"
       sodipodi:cx="-634.28571" />
    <path
       transform="matrix(0.12304446,0,0,0.12304446,309.93003,852.31903)"
       id="path3718"
       style="fill:#000000;fill-opacity:1;stroke:#000000;stroke-width:10;stroke-linecap:butt;stroke-linejoin:miter;stroke-miterlimit:4;stroke-opacity:1;stroke-dasharray:none;stroke-dashoffset:0"
       d="m -559.99999,583.79077 a 74.285713,74.285713 0 1 1 -148.57143,0 74.285713,74.285713 0 1 1 148.57143,0 z"
       sodipodi:type="arc"
       sodipodi:ry="74.285713"
       sodipodi:rx="74.285713"
       sodipodi:cy="583.79077"
       sodipodi:cx="-634.28571" />
    <path
       style="fill:#000000;fill-opacity:1;fill-rule:nonzero;stroke:#000000;stroke-width:10;stroke-linecap:butt;stroke-linejoin:miter;stroke-miterlimit:4;stroke-opacity:1;stroke-dasharray:none;stroke-dashoffset:0"
       id="path3741"
       transform="matrix(0.12304446,0,0,0.12304446,100.75445,851.65107)"
       d="m -20.000002,689.50507 a 28.571428,28.571428 0 1 1 -57.142857,0 28.571428,28.571428 0 1 1 57.142857,0 z"
       sodipodi:type="arc"
       sodipodi:ry="28.571428"
       sodipodi:rx="28.571428"
       sodipodi:cy="689.50507"
       sodipodi:cx="-48.57143" />
    <path
       transform="matrix(0.12304446,0,0,0.12304446,123.39463,851.65107)"
       id="path3743"
       style="fill:#000000;fill-opacity:1;fill-rule:nonzero;stroke:#000000;stroke-width:10;stroke-linecap:butt;stroke-linejoin:miter;stroke-miterlimit:4;stroke-opacity:1;stroke-dasharray:none;stroke-dashoffset:0"
       d="m -20.000002,689.50507 a 28.571428,28.571428 0 1 1 -57.142857,0 28.571428,28.571428 0 1 1 57.142857,0 z"
       sodipodi:type="arc"
       sodipodi:ry="28.571428"
       sodipodi:rx="28.571428"
       sodipodi:cy="689.50507"
       sodipodi:cx="-48.57143" />
    <path
       transform="matrix(0.12304446,0,0,0.12304446,168.92106,851.65107)"
       id="path3747"
       style="fill:#000000;fill-opacity:1;fill-rule:nonzero;stroke:#000000;stroke-width:10;stroke-linecap:butt;stroke-linejoin:miter;stroke-miterlimit:4;stroke-opacity:1;stroke-dasharray:none;stroke-dashoffset:0"
       d="m -20.000002,689.50507 a 28.571428,28.571428 0 1 1 -57.142857,0 28.571428,28.571428 0 1 1 57.142857,0 z"
       sodipodi:type="arc"
       sodipodi:ry="28.571428"
       sodipodi:rx="28.571428"
       sodipodi:cy="689.50507"
       sodipodi:cx="-48.57143" />
    <path
       style="fill:#000000;fill-opacity:1;fill-rule:nonzero;stroke:#000000;stroke-width:10;stroke-linecap:butt;stroke-linejoin:miter;stroke-miterlimit:4;stroke-opacity:1;stroke-dasharray:none;stroke-dashoffset:0"
       id="path4566"
       transform="matrix(0.12304446,0,0,0.12304446,145.69407,851.65107)"
       d="m -20.000002,689.50507 a 28.571428,28.571428 0 1 1 -57.142857,0 28.571428,28.571428 0 1 1 57.142857,0 z"
       sodipodi:type="arc"
       sodipodi:ry="28.571428"
       sodipodi:rx="28.571428"
       sodipodi:cy="689.50507"
       sodipodi:cx="-48.57143" />
  </g>
</svg>
